<?xml version="1.0" encoding="utf-8"?>
<!-- Generator: Adobe Illustrator 23.1.1, SVG Export Plug-In . SVG Version: 6.00 Build 0)  -->
<svg version="1.1" id="Layer_1" xmlns="http://www.w3.org/2000/svg" xmlns:xlink="http://www.w3.org/1999/xlink" x="0px" y="0px"
	 viewBox="0 0 513 513" style="enable-background:new 0 0 513 513;" xml:space="preserve">
<style type="text/css">
	.st0{fill:#FFFFFF;}
</style>
<g transform="translate(0.000000,513.000000) scale(0.100000,-0.100000)">
	<path class="st0" d="M430,5123c-197-33-378-206-419-401c-8-38-11-655-11-2161C0,678,2,447,16,399C72,204,237,50,422,20
		c42-6,765-10,2158-10c2313,0,2153-4,2277,63c74,40,171,136,210,210c67,124,63-36,63,2293c0,2293,3,2150-56,2271
		c-38,76-151,189-226,226c-123,59,25,56-2278,55C1407,5128,444,5125,430,5123z"/>
</g>
</svg>
